<svg width="2145" height="841" viewBox="0 0 2145 841" fill="none" xmlns="http://www.w3.org/2000/svg">
<path d="M726.216 484.144C726.216 680.969 565.905 840.527 368.151 840.527C170.398 840.527 10.0864 680.969 10.0864 484.144C263.468 484.144 170.398 484.144 368.151 484.144C565.905 484.144 368.151 484.144 726.216 484.144Z" fill="#3B86CB"/>
<path d="M607.171 78.0583C677.139 120.198 694.938 218.936 646.947 298.62C646.198 299.863 645.449 301.106 644.665 302.294C570.401 420.95 397.891 475.94 362.934 484.1C353.925 450.325 330.72 267.573 386.806 158.262C387.035 157.881 387.214 157.47 387.392 157.059L391.213 150.026C392.008 148.707 392.767 147.332 393.561 146.013C441.553 66.3287 537.178 35.9033 607.121 78.0277L607.171 78.0583Z" fill="#3FD961"/>
<path d="M127.762 74.4708C57.1897 115.59 37.9588 214.06 84.7883 294.432C85.5188 295.686 86.2494 296.94 87.0161 298.138C159.549 417.86 331.243 475.35 366.077 484.016C375.576 450.376 401.432 267.98 346.939 157.866C346.716 157.482 346.543 157.068 346.371 156.655L342.653 149.567C341.877 148.236 341.138 146.85 340.363 145.52C293.533 65.1473 198.36 33.3366 127.813 74.441L127.762 74.4708Z" fill="#3FD961"/>
<path d="M370.467 415.581C368.851 417.462 365.934 415.303 367.26 413.208L538.75 142.291C539.372 141.309 540.696 141.062 541.63 141.753L579.07 169.456C580.004 170.147 580.154 171.486 579.397 172.367L370.467 415.581Z" fill="white"/>
<path d="M359.938 415.568C361.558 417.445 364.47 415.279 363.139 413.187L191.024 142.667C190.4 141.687 189.075 141.443 188.143 142.136L150.767 169.925C149.835 170.618 149.687 171.958 150.446 172.837L359.938 415.568Z" fill="white"/>
<path d="M1062.06 200.854H979.462V244.954H1054.71V303.054H979.462V406.654H910.862V142.754H1062.06V200.854ZM1154.12 316.004C1154.12 322.071 1155.17 327.671 1157.27 332.804C1159.6 337.704 1162.52 342.021 1166.02 345.754C1169.75 349.488 1174.07 352.404 1178.97 354.504C1184.1 356.604 1189.47 357.654 1195.07 357.654C1200.67 357.654 1205.92 356.604 1210.82 354.504C1215.95 352.404 1220.27 349.488 1223.77 345.754C1227.5 342.021 1230.42 337.704 1232.52 332.804C1234.85 327.671 1236.02 322.188 1236.02 316.354C1236.02 310.754 1234.85 305.504 1232.52 300.604C1230.42 295.471 1227.5 291.038 1223.77 287.304C1220.27 283.571 1215.95 280.654 1210.82 278.554C1205.92 276.454 1200.67 275.404 1195.07 275.404C1189.47 275.404 1184.1 276.454 1178.97 278.554C1174.07 280.654 1169.75 283.571 1166.02 287.304C1162.52 291.038 1159.6 295.354 1157.27 300.254C1155.17 305.154 1154.12 310.404 1154.12 316.004ZM1087.27 315.304C1087.27 302.004 1089.95 289.638 1095.32 278.204C1100.68 266.538 1108.15 256.504 1117.72 248.104C1127.28 239.471 1138.6 232.704 1151.67 227.804C1164.97 222.904 1179.43 220.454 1195.07 220.454C1210.47 220.454 1224.7 222.904 1237.77 227.804C1251.07 232.471 1262.5 239.121 1272.07 247.754C1281.87 256.154 1289.45 266.304 1294.82 278.204C1300.18 289.871 1302.87 302.821 1302.87 317.054C1302.87 331.288 1300.07 344.354 1294.47 356.254C1289.1 367.921 1281.63 378.071 1272.07 386.704C1262.5 395.104 1250.95 401.638 1237.42 406.304C1224.12 410.971 1209.65 413.304 1194.02 413.304C1178.62 413.304 1164.38 410.971 1151.32 406.304C1138.25 401.638 1126.93 394.988 1117.37 386.354C1108.03 377.721 1100.68 367.454 1095.32 355.554C1089.95 343.421 1087.27 330.004 1087.27 315.304ZM1399.19 316.004C1399.19 322.071 1400.24 327.671 1402.34 332.804C1404.67 337.704 1407.59 342.021 1411.09 345.754C1414.82 349.488 1419.14 352.404 1424.04 354.504C1429.17 356.604 1434.54 357.654 1440.14 357.654C1445.74 357.654 1450.99 356.604 1455.89 354.504C1461.02 352.404 1465.34 349.488 1468.84 345.754C1472.57 342.021 1475.49 337.704 1477.59 332.804C1479.92 327.671 1481.09 322.188 1481.09 316.354C1481.09 310.754 1479.92 305.504 1477.59 300.604C1475.49 295.471 1472.57 291.038 1468.84 287.304C1465.34 283.571 1461.02 280.654 1455.89 278.554C1450.99 276.454 1445.74 275.404 1440.14 275.404C1434.54 275.404 1429.17 276.454 1424.04 278.554C1419.14 280.654 1414.82 283.571 1411.09 287.304C1407.59 291.038 1404.67 295.354 1402.34 300.254C1400.24 305.154 1399.19 310.404 1399.19 316.004ZM1332.34 315.304C1332.34 302.004 1335.02 289.638 1340.39 278.204C1345.75 266.538 1353.22 256.504 1362.79 248.104C1372.35 239.471 1383.67 232.704 1396.74 227.804C1410.04 222.904 1424.5 220.454 1440.14 220.454C1455.54 220.454 1469.77 222.904 1482.84 227.804C1496.14 232.471 1507.57 239.121 1517.14 247.754C1526.94 256.154 1534.52 266.304 1539.89 278.204C1545.25 289.871 1547.94 302.821 1547.94 317.054C1547.94 331.288 1545.14 344.354 1539.54 356.254C1534.17 367.921 1526.7 378.071 1517.14 386.704C1507.57 395.104 1496.02 401.638 1482.49 406.304C1469.19 410.971 1454.72 413.304 1439.09 413.304C1423.69 413.304 1409.45 410.971 1396.39 406.304C1383.32 401.638 1372 394.988 1362.44 386.354C1353.1 377.721 1345.75 367.454 1340.39 355.554C1335.02 343.421 1332.34 330.004 1332.34 315.304ZM1643.2 316.354C1643.2 322.188 1644.25 327.671 1646.35 332.804C1648.45 337.704 1651.25 342.021 1654.75 345.754C1658.49 349.488 1662.8 352.404 1667.7 354.504C1672.84 356.604 1678.32 357.654 1684.15 357.654C1689.75 357.654 1695 356.604 1699.9 354.504C1705.04 352.404 1709.35 349.488 1712.85 345.754C1716.59 342.021 1719.5 337.704 1721.6 332.804C1723.94 327.904 1725.1 322.654 1725.1 317.054C1725.1 311.454 1723.94 306.204 1721.6 301.304C1719.5 296.171 1716.59 291.738 1712.85 288.004C1709.35 284.271 1705.04 281.354 1699.9 279.254C1695 277.154 1689.75 276.104 1684.15 276.104C1678.55 276.104 1673.19 277.154 1668.05 279.254C1663.15 281.354 1658.84 284.271 1655.1 288.004C1651.6 291.738 1648.69 296.054 1646.35 300.954C1644.25 305.621 1643.2 310.754 1643.2 316.354ZM1723 116.154H1786.7V406.654H1723V386.704C1709.47 403.738 1691.15 412.254 1668.05 412.254C1654.99 412.254 1642.97 409.804 1632 404.904C1621.04 400.004 1611.47 393.238 1603.3 384.604C1595.14 375.971 1588.72 365.821 1584.05 354.154C1579.62 342.488 1577.4 329.888 1577.4 316.354C1577.4 303.521 1579.5 291.388 1583.7 279.954C1588.14 268.288 1594.32 258.138 1602.25 249.504C1610.19 240.871 1619.64 234.104 1630.6 229.204C1641.8 224.071 1654.05 221.504 1667.35 221.504C1689.75 221.504 1708.3 229.321 1723 244.954V116.154ZM1062.06 515.854H979.462V559.954H1054.71V618.054H979.462V721.654H910.862V457.754H1062.06V515.854ZM1154.12 631.004C1154.12 637.071 1155.17 642.671 1157.27 647.804C1159.6 652.704 1162.52 657.021 1166.02 660.754C1169.75 664.488 1174.07 667.404 1178.97 669.504C1184.1 671.604 1189.47 672.654 1195.07 672.654C1200.67 672.654 1205.92 671.604 1210.82 669.504C1215.95 667.404 1220.27 664.488 1223.77 660.754C1227.5 657.021 1230.42 652.704 1232.52 647.804C1234.85 642.671 1236.02 637.188 1236.02 631.354C1236.02 625.754 1234.85 620.504 1232.52 615.604C1230.42 610.471 1227.5 606.038 1223.77 602.304C1220.27 598.571 1215.95 595.654 1210.82 593.554C1205.92 591.454 1200.67 590.404 1195.07 590.404C1189.47 590.404 1184.1 591.454 1178.97 593.554C1174.07 595.654 1169.75 598.571 1166.02 602.304C1162.52 606.038 1159.6 610.354 1157.27 615.254C1155.17 620.154 1154.12 625.404 1154.12 631.004ZM1087.27 630.304C1087.27 617.004 1089.95 604.638 1095.32 593.204C1100.68 581.538 1108.15 571.504 1117.72 563.104C1127.28 554.471 1138.6 547.704 1151.67 542.804C1164.97 537.904 1179.43 535.454 1195.07 535.454C1210.47 535.454 1224.7 537.904 1237.77 542.804C1251.07 547.471 1262.5 554.121 1272.07 562.754C1281.87 571.154 1289.45 581.304 1294.82 593.204C1300.18 604.871 1302.87 617.821 1302.87 632.054C1302.87 646.288 1300.07 659.354 1294.47 671.254C1289.1 682.921 1281.63 693.071 1272.07 701.704C1262.5 710.104 1250.95 716.638 1237.42 721.304C1224.12 725.971 1209.65 728.304 1194.02 728.304C1178.62 728.304 1164.38 725.971 1151.32 721.304C1138.25 716.638 1126.93 709.988 1117.37 701.354C1108.03 692.721 1100.68 682.454 1095.32 670.554C1089.95 658.421 1087.27 645.004 1087.27 630.304ZM1339.34 542.104H1402.69V571.504C1409.45 560.771 1417.74 552.604 1427.54 547.004C1437.34 541.171 1448.77 538.254 1461.84 538.254C1463.47 538.254 1465.22 538.254 1467.09 538.254C1469.19 538.254 1471.52 538.488 1474.09 538.954V599.504C1465.69 595.304 1456.59 593.204 1446.79 593.204C1432.09 593.204 1421 597.638 1413.54 606.504C1406.3 615.138 1402.69 627.854 1402.69 644.654V721.654H1339.34V542.104ZM1770.43 623.654L1739.63 535.804L1708.83 623.654H1770.43ZM1788.63 675.804H1690.63L1674.88 721.654H1601.73L1702.18 457.754H1777.08L1877.53 721.654H1804.38L1788.63 675.804ZM1968.7 431.154V721.654H1905.35V431.154H1968.7ZM2075.34 431.154V721.654H2011.99V431.154H2075.34Z" fill="black"/>
</svg>
